<?xml version="1.0" encoding="utf-8"?>
<!-- Generator: Adobe Illustrator 24.3.0, SVG Export Plug-In . SVG Version: 6.00 Build 0)  -->
<svg version="1.1" id="Layer_1" xmlns="http://www.w3.org/2000/svg" xmlns:xlink="http://www.w3.org/1999/xlink" x="0px" y="0px"
	 viewBox="0 0 96 96" style="enable-background:new 0 0 96 96;" xml:space="preserve">
<style type="text/css">
	.st0{fill:url(#SVGID_1_);}
	.st1{fill:url(#SVGID_2_);}
	.st2{fill:url(#SVGID_3_);}
	.st3{fill:url(#SVGID_4_);}
	.st4{fill:url(#SVGID_5_);}
</style>
<linearGradient id="SVGID_1_" gradientUnits="userSpaceOnUse" x1="47.9013" y1="96.792" x2="47.9013" y2="40.1389" gradientTransform="matrix(1 0 0 -1 0 98)">
	<stop  offset="0.4415" style="stop-color:#F6F6F6"/>
	<stop  offset="0.6666" style="stop-color:#EEEEEE"/>
	<stop  offset="0.8423" style="stop-color:#E1E1E1"/>
	<stop  offset="0.9923" style="stop-color:#CECECE"/>
	<stop  offset="1" style="stop-color:#CDCDCD"/>
</linearGradient>
<path class="st0" d="M89.2,22.8c-3.8-5.9-10.5-9.5-17.5-9.8c-3.8,0.3-5.9-3.1-8.5-5.2c-10.1-8.7-26.6-8.2-36.3,1
	c-4.1,3.3-6.2,8.3-8.6,12.8c-1.7,1.1-3.7,1.7-5.6,2.5c-5.1,2.3-9.8,7.4-10.2,13.1c11-0.1,22.4-3.4,33.2-4.9
	c-10.8,1.4-21.4,4.8-32.4,4.9H2.5C2.4,43.3,4,50,9.2,53.9c3.2,2.8,7.3,4.4,11.5,4.3c14.4,0.1,28.8-0.1,43.2,0
	c3.6,0,7.2,0.1,10.8-0.4c8.9-1.4,16.7-8.8,18.1-17.7C94.1,34.2,92.9,27.7,89.2,22.8z"/>
<g id="_x23_199be2ff">
	
		<linearGradient id="SVGID_2_" gradientUnits="userSpaceOnUse" x1="25.2833" y1="35.6904" x2="25.2833" y2="29.0824" gradientTransform="matrix(1 0 0 -1 0 98)">
		<stop  offset="0.3077" style="stop-color:#2D9DDE"/>
		<stop  offset="1" style="stop-color:#1772AF"/>
	</linearGradient>
	<path class="st1" d="M22.7,64.4c1.7-1.3,3.8-1.6,5.8-2.1c-0.7,2.3-0.8,6.4-4,6.6C22.2,69.2,21.1,65.8,22.7,64.4z"/>
	
		<linearGradient id="SVGID_3_" gradientUnits="userSpaceOnUse" x1="39.3415" y1="27.112" x2="39.3415" y2="20.504" gradientTransform="matrix(1 0 0 -1 0 98)">
		<stop  offset="0.3077" style="stop-color:#2D9DDE"/>
		<stop  offset="1" style="stop-color:#1772AF"/>
	</linearGradient>
	<path class="st2" d="M36.8,73c1.7-1.3,3.8-1.6,5.8-2.1c-0.7,2.3-0.8,6.4-4,6.6C36.3,77.8,35.2,74.4,36.8,73z"/>
	
		<linearGradient id="SVGID_4_" gradientUnits="userSpaceOnUse" x1="53.96" y1="37.4513" x2="53.96" y2="30.8433" gradientTransform="matrix(1 0 0 -1 0 98)">
		<stop  offset="0.3077" style="stop-color:#2D9DDE"/>
		<stop  offset="1" style="stop-color:#1772AF"/>
	</linearGradient>
	<path class="st3" d="M51.4,62.6c1.7-1.3,3.8-1.6,5.8-2.1c-0.7,2.3-0.8,6.4-4,6.6C50.9,67.5,49.8,64.1,51.4,62.6z"/>
	
		<linearGradient id="SVGID_5_" gradientUnits="userSpaceOnUse" x1="71.8409" y1="33.2588" x2="71.8409" y2="26.6507" gradientTransform="matrix(1 0 0 -1 0 98)">
		<stop  offset="0.3077" style="stop-color:#2D9DDE"/>
		<stop  offset="1" style="stop-color:#1772AF"/>
	</linearGradient>
	<path class="st4" d="M69.3,66.8c1.7-1.3,3.8-1.6,5.8-2.1c-0.7,2.3-0.8,6.4-4,6.6C68.8,71.7,67.7,68.3,69.3,66.8z"/>
</g>
</svg>
