<svg width="16" height="17" viewBox="0 0 16 17" fill="none" xmlns="http://www.w3.org/2000/svg">
<g clip-path="url(#clip0_8_179)">
<path fill-rule="evenodd" clip-rule="evenodd" d="M15.984 15.264C15.9841 15.4243 15.9527 15.5831 15.8914 15.7312C15.8302 15.8793 15.7403 16.0139 15.627 16.1273C15.5137 16.2407 15.3792 16.3307 15.2311 16.392C15.083 16.4534 14.9243 16.485 14.764 16.485H1.218C0.894783 16.4845 0.584984 16.3557 0.356622 16.127C0.12826 15.8982 -4.34315e-07 15.5882 0 15.265L0 1.72001C0 1.04601 0.546 0.501007 1.22 0.501007H14.763C14.9233 0.500876 15.082 0.532335 15.2302 0.593587C15.3783 0.654839 15.5129 0.744683 15.6263 0.857984C15.7397 0.971284 15.8297 1.10582 15.891 1.2539C15.9524 1.40199 15.984 1.56071 15.984 1.72101V15.264Z" fill="#D9272E"/>
<path fill-rule="evenodd" clip-rule="evenodd" d="M9.73499 6.91V3.418H6.36899V6.912L2.87399 6.906V10.266H6.36899V13.762H9.73499V10.265H13.229V6.91H9.73499Z" fill="white"/>
</g>
<defs>
<clipPath id="clip0_8_179">
<rect width="16" height="17" fill="white"/>
</clipPath>
</defs>
</svg>
