<?xml version="1.0" encoding="utf-8"?>
<!-- Generator: Adobe Illustrator 24.3.0, SVG Export Plug-In . SVG Version: 6.00 Build 0)  -->
<svg version="1.1" id="Layer_1" xmlns="http://www.w3.org/2000/svg" xmlns:xlink="http://www.w3.org/1999/xlink" x="0px" y="0px"
	 viewBox="0 0 512 512" style="enable-background:new 0 0 512 512;" xml:space="preserve">
<style type="text/css">
	.st0{fill:#EAEAEA;}
</style>
<g id="_1">
	<path class="st0" d="M378.9,413.4H110.5c-55.1-0.1-99.7-44.7-99.6-99.8c0-50,37.1-92.2,86.6-98.7C120.2,131,206.7,81.4,290.6,104.1
		c36.3,9.8,67.8,32.3,89,63.4c67.9,0.9,122.3,56.6,121.4,124.5C500.2,359,445.9,413,378.9,413.4L378.9,413.4z M110.5,250.9
		c-34.7,0-62.8,28.1-62.8,62.8s28.1,62.8,62.8,62.8h268.3c47.6-0.6,85.7-39.6,85.1-87.2c-0.6-46.8-38.3-84.5-85.1-85.1
		c-2.3,0-4.8,0.1-7.5,0.4c-7.1,0.6-13.9-2.9-17.5-9.1c-33.4-57.6-107.2-77.2-164.8-43.8c-30.9,17.9-52.3,48.6-58.4,83.9
		c-1.5,9-9.5,15.5-18.6,15.3h-0.9L110.5,250.9z"/>
</g>
</svg>
