<?xml version="1.0" encoding="utf-8"?>
<!-- Generator: Adobe Illustrator 24.3.0, SVG Export Plug-In . SVG Version: 6.00 Build 0)  -->
<svg version="1.1" id="Layer_1" xmlns="http://www.w3.org/2000/svg" xmlns:xlink="http://www.w3.org/1999/xlink" x="0px" y="0px"
	 viewBox="0 0 38 38" style="enable-background:new 0 0 38 38;" xml:space="preserve">
<style type="text/css">
	.st0{fill:url(#SVGID_1_);}
	.st1{opacity:0.85;fill:#CCCCCC;enable-background:new    ;}
</style>
<linearGradient id="SVGID_1_" gradientUnits="userSpaceOnUse" x1="1.221" y1="473.221" x2="32.408" y2="504.408" gradientTransform="matrix(1 0 0 1 0 -472)">
	<stop  offset="0" style="stop-color:#FED100"/>
	<stop  offset="1" style="stop-color:#E36001"/>
</linearGradient>
<path class="st0" d="M19,0C8.5,0,0,8.5,0,19s8.5,19,19,19s19-8.5,19-19S29.5,0,19,0z"/>
<path class="st1" d="M29.7,35.1c-1.6-0.1-3.2,0-4.8,0c-0.1,0-3.2,0.1-4.7,0c-1.5-0.3-1.4-2.5,0-2.9c1.7-0.1,3.4,0,5.1-0.1
	c1.5-0.3,1.5-2.6,0-2.9c-1.2-0.1-2.5,0-3.7,0c-2.8,0-5.6,0-8.4,0c-1.1,0-1.9-1.4-1.2-2.3c0.9-1.4,2.9,0.1,3.8-1.2
	c0.5-0.6,0.3-1.5-0.2-2c-0.2-0.2-0.4-0.3-0.7-0.3c-3.5-0.1-7,0-10.5-0.1c-1.1,0-1.9,1.4-1.2,2.3c0.9,1.4,3-0.1,3.9,1.3
	c0.7,0.9-0.1,2.3-1.1,2.3c-0.4,0-0.9,0-1.3,0c0,0,0,0,0,0l0,0c-0.3,0-0.5,0-0.8,0l-2,0C0,29.2-0.1,30.4,0,31
	c0.5,1.7,2.8,0.4,4.2,1.3c0.4,0.2,0.7,0.5,0.9,0.9c0,1.1-0.8,2.1-1.9,2c-1.5,0-1.7,2.7,0,2.7c1.9,0,3.4,0,5.2,0c0,0,0,0,0,0
	c0.1,0,0.3,0,0.5,0c1.2,0,2.6,0,4.3,0c0,0,0,0,0,0c1.9,0,4.1,0,6.2,0c0,0,0,0,0,0l10,0C31,38,31.3,35.5,29.7,35.1z"/>
<path class="st1" d="M19.8,29.3c0.9,0.1,1.9,0,2.9,0c0.1,0,1.9,0,2.8,0c0.9,0.2,0.9,1.5,0,1.7c-1,0.1-2,0-3,0
	c-0.9,0.2-0.9,1.5,0,1.7c0.7,0.1,1.5,0,2.2,0c1.7,0,3.4,0,5,0c0.7,0,1.1,0.9,0.7,1.4c-0.5,0.8-1.8,0-2.3,0.7
	c-0.3,0.4-0.2,0.9,0.1,1.2c0.1,0.1,0.3,0.2,0.4,0.2c2.1,0.1,4.2,0,6.3,0c0.7,0,1.1-0.8,0.7-1.4c-0.5-0.8-1.8,0.1-2.3-0.8
	c-0.4-0.5,0-1.4,0.7-1.4c0.3,0,0.5,0,0.8,0c0,0,0,0,0,0l0,0c0.2,0,0.3,0,0.5,0l1.2,0c1.1,0,1.1-0.8,1.1-1.1c-0.3-1-1.7-0.2-2.5-0.8
	c-0.2-0.1-0.4-0.3-0.6-0.6c0-0.6,0.5-1.3,1.1-1.2c0.9,0,1-1.6,0-1.6c-1.2,0-2.1,0-3.1,0c0,0,0,0,0,0c-0.1,0-0.2,0-0.3,0
	c-0.7,0-1.5,0-2.6,0c0,0,0,0,0,0c-1.2,0-2.5,0-3.7,0c0,0,0,0,0,0l-6,0C19,27.6,18.9,29.1,19.8,29.3z"/>
<path class="st1" d="M29.7,27.6c-0.5,0-1,0-1.5,0c0,0-1,0-1.5,0c-0.5-0.1-0.5-1.1,0-1.2c0.5,0,1.1,0,1.6,0c0.5-0.1,0.5-1.1,0-1.2
	c-0.4,0-0.8,0-1.2,0c-0.9,0-1.8,0-2.7,0c-0.4,0-0.6-0.6-0.4-1c0.3-0.6,0.9,0,1.2-0.5c0.2-0.3,0.1-0.6-0.1-0.8
	c-0.1-0.1-0.1-0.1-0.2-0.1c-1.1-0.1-2.2,0-3.4,0c-0.4,0-0.6,0.6-0.4,1c0.3,0.6,1,0,1.2,0.5c0.2,0.4,0,1-0.4,1c-0.1,0-0.3,0-0.4,0
	c0,0,0,0,0,0l0,0c-0.1,0-0.2,0-0.2,0l-0.6,0c-0.6,0-0.6,0.5-0.6,0.8c0.2,0.7,0.9,0.2,1.4,0.5c0.1,0.1,0.2,0.2,0.3,0.4
	c0,0.5-0.2,0.9-0.6,0.9c-0.5,0-0.6,1.2,0,1.2c0.6,0,1.1,0,1.7,0c0,0,0,0,0,0c0,0,0.1,0,0.1,0c0.4,0,0.8,0,1.4,0c0,0,0,0,0,0
	c0.6,0,1.3,0,2,0c0,0,0,0,0,0l3.2,0C30.1,28.8,30.2,27.8,29.7,27.6z"/>
</svg>
