<svg xmlns="http://www.w3.org/2000/svg" xmlns:xlink="http://www.w3.org/1999/xlink" version="1.1" id="Layer_1" x="0px" y="0px" style="enable-background:new 0 0 96 96;" xml:space="preserve" viewBox="2.98 13.11 90.74 69.59">
<style type="text/css">
	.st0{fill:url(#SVGID_1_);}
	.st1{fill:url(#SVGID_2_);}
	.st2{fill:url(#SVGID_3_);}
</style>
<linearGradient id="SVGID_1_" gradientUnits="userSpaceOnUse" x1="48.0518" y1="13.1313" x2="47.9708" y2="69.3832">
	<stop offset="0" style="stop-color:#F8F8F8"/>
	<stop offset="0.4415" style="stop-color:#F6F6F6"/>
	<stop offset="0.6666" style="stop-color:#EEEEEE"/>
	<stop offset="0.8423" style="stop-color:#E1E1E1"/>
	<stop offset="0.9923" style="stop-color:#CECECE"/>
	<stop offset="1" style="stop-color:#CDCDCD"/>
</linearGradient>
<path class="st0" d="M92.7,43.3c-0.2-5.6-3.8-10.3-8.1-13.8c-4.6-3.7-10.6-5.5-16.4-5c-1.2-1.5-2.5-2.9-3.9-4.3l-0.2,0  c-5.4-5.2-13.3-7.6-20.8-7c-9.3,0.7-18,6.5-22.4,14.7c-1,1.8-1.7,3.7-2.3,5.6c-5.5,0.8-10.6,4.1-13.3,8.9C2,48.2,2.2,55.9,6,61.4  c3.3,4.8,9,8,14.9,8c16.9,0,33.8,0,50.6-0.1C84.5,69,95,56,92.7,43.3z"/>
<linearGradient id="SVGID_2_" gradientUnits="userSpaceOnUse" x1="62.4737" y1="35.1514" x2="62.4173" y2="74.2565">
	<stop offset="0" style="stop-color:#F8F8F8"/>
	<stop offset="0.4415" style="stop-color:#F6F6F6"/>
	<stop offset="0.6666" style="stop-color:#EEEEEE"/>
	<stop offset="0.8423" style="stop-color:#E1E1E1"/>
	<stop offset="0.9923" style="stop-color:#CECECE"/>
	<stop offset="1" style="stop-color:#CDCDCD"/>
</linearGradient>
<path class="st1" d="M93.5,56.1c-0.1-3.9-2.7-7.2-5.6-9.6c-3.2-2.6-7.4-3.8-11.4-3.5c-0.8-1-1.7-2-2.7-3l-0.2,0  c-3.8-3.6-9.3-5.3-14.4-4.9c-6.5,0.5-12.5,4.5-15.5,10.2c-0.7,1.2-1.2,2.6-1.6,3.9c-3.8,0.5-7.3,2.8-9.2,6.2  c-2.3,4-2.2,9.3,0.5,13.2c2.3,3.4,6.3,5.6,10.4,5.5c11.7,0,23.5,0,35.2,0C87.8,74,95.1,64.9,93.5,56.1z"/>
<linearGradient id="SVGID_3_" gradientUnits="userSpaceOnUse" x1="32.5757" y1="55.8175" x2="32.5367" y2="82.8912">
	<stop offset="0" style="stop-color:#F8F8F8"/>
	<stop offset="0.4415" style="stop-color:#F6F6F6"/>
	<stop offset="0.6666" style="stop-color:#EEEEEE"/>
	<stop offset="0.8423" style="stop-color:#E1E1E1"/>
	<stop offset="0.9923" style="stop-color:#CECECE"/>
	<stop offset="1" style="stop-color:#CDCDCD"/>
</linearGradient>
<path class="st2" d="M54.1,70.3c-0.1-2.7-1.8-5-3.9-6.7c-2.2-1.8-5.1-2.6-7.9-2.4c-0.6-0.7-1.2-1.4-1.9-2.1l-0.1,0  c-2.6-2.5-6.4-3.6-10-3.4c-4.5,0.3-8.7,3.1-10.8,7.1c-0.5,0.8-0.8,1.8-1.1,2.7c-2.6,0.4-5.1,2-6.4,4.3c-1.6,2.8-1.5,6.5,0.3,9.1  c1.6,2.3,4.3,3.9,7.2,3.8c8.1,0,16.2,0,24.4,0C50.1,82.7,55.2,76.4,54.1,70.3z"/>
</svg>