<svg xmlns="http://www.w3.org/2000/svg" xmlns:xlink="http://www.w3.org/1999/xlink" version="1.1" id="Layer_1" x="0px" y="0px" style="enable-background:new 0 0 96 96;" xml:space="preserve" viewBox="1.4 4.85 93.09 86.38">
<style type="text/css">
	.st0{fill:url(#SVGID_1_);}
	.st1{fill:url(#SVGID_2_);}
	.st2{fill:url(#SVGID_3_);}
	.st3{fill:url(#SVGID_4_);}
</style>
<g id="_x23_199be2ff">
	
		<linearGradient id="SVGID_1_" gradientUnits="userSpaceOnUse" x1="66.5071" y1="28.1525" x2="66.5071" y2="13.1137" gradientTransform="matrix(1 0 0 -1 0 98)">
		<stop offset="0" style="stop-color:#C1DFE0"/>
		<stop offset="9.822965e-03" style="stop-color:#C0DEE0"/>
		<stop offset="0.3222" style="stop-color:#AECFD9"/>
		<stop offset="0.6463" style="stop-color:#A3C6D4"/>
		<stop offset="1" style="stop-color:#9FC3D3"/>
	</linearGradient>
	<path class="st0" d="M64.5,73.9c0.2-1.4-0.2-4.3,2-4.1c2.1-0.2,1.8,2.7,2,4.1c1.3-0.7,3.7-2.3,4.6-0.2c1.1,1.7-1.5,2.7-2.5,3.7   c1.1,1,3.6,1.8,2.5,3.6c-0.9,2.1-3.2,0.5-4.6-0.2c-0.2,1.4,0.2,4.2-2,4.1c-2.2,0.2-1.8-2.7-2-4.1c-1.3,0.7-3.8,2.3-4.6,0.2   c-1.1-1.8,1.6-2.7,2.7-3.6c-1.1-0.9-3.8-1.9-2.7-3.7C60.9,71.6,63.2,73.3,64.5,73.9z"/>
</g>
<linearGradient id="SVGID_2_" gradientUnits="userSpaceOnUse" x1="47.9441" y1="93.1491" x2="47.9441" y2="35.084" gradientTransform="matrix(1 0 0 -1 0 98)">
	<stop offset="0" style="stop-color:#F8F8F8"/>
	<stop offset="0.3181" style="stop-color:#F4F4F4"/>
	<stop offset="0.6101" style="stop-color:#E9E9E9"/>
	<stop offset="0.891" style="stop-color:#D7D7D7"/>
	<stop offset="0.9923" style="stop-color:#CECECE"/>
	<stop offset="1" style="stop-color:#CDCDCD"/>
</linearGradient>
<path class="st1" d="M94.4,36.2c0-5.4-3.6-9.6-7.1-13.4c-5-4.5-11.7-6.9-18.4-6.4C62.7,8.3,52.3,3.7,42.1,5.1  c-11,1.2-20.7,9.4-24,19.9c-0.2,0.2-0.5,0.7-0.7,1c-5.9,1-11.6,4.7-13.8,10.4L3,37.1c-1.3,2.8-1.3,6-1.6,9.1c0.7,3.5,2,6.8,4.1,9.7  c3.7,4.1,8.9,7,14.6,6.9c17.1,0,34.2,0,51.3,0c6.6,0,13.1-3,17.5-8S94.9,42.9,94.4,36.2z M90.1,40c-0.2,0.1-0.5,0.1-0.7,0.2  C89.6,40.1,89.9,40.1,90.1,40z"/>
<g id="_x23_199be2ff_1_">
	
		<linearGradient id="SVGID_3_" gradientUnits="userSpaceOnUse" x1="50.4917" y1="60.5165" x2="50.4917" y2="42.0759" gradientTransform="matrix(0.9986 5.347102e-02 5.347102e-02 -0.9986 -13.4953 107.6107)">
		<stop offset="0" style="stop-color:#C1DFE0"/>
		<stop offset="9.822965e-03" style="stop-color:#C0DEE0"/>
		<stop offset="0.3222" style="stop-color:#AECFD9"/>
		<stop offset="0.6463" style="stop-color:#A3C6D4"/>
		<stop offset="1" style="stop-color:#9FC3D3"/>
	</linearGradient>
	<path class="st2" d="M37.3,54.7c0.3-1.7,0.1-5.3,2.8-4.8c2.6-0.1,2,3.4,2.2,5.1c1.7-0.7,4.6-2.5,5.6,0.1c1.2,2.2-2,3.2-3.3,4.3   c1.2,1.2,4.2,2.4,2.9,4.6c-1.2,2.5-4,0.4-5.6-0.5c-0.4,1.7-0.1,5.2-2.7,4.8c-2.7,0.1-2.1-3.4-2.2-5.1c-1.7,0.7-4.7,2.5-5.6-0.1   c-1.2-2.2,2.2-3.2,3.5-4.2c-1.3-1.1-4.5-2.5-3-4.6C32.9,51.7,35.7,53.9,37.3,54.7z"/>
</g>
<g id="_x23_199be2ff_2_">
	
		<linearGradient id="SVGID_4_" gradientUnits="userSpaceOnUse" x1="20.9426" y1="1.7527" x2="20.9426" y2="-10.7682" gradientTransform="matrix(0.9963 -8.609474e-02 -8.609474e-02 -0.9963 4.4113 82.2609)">
		<stop offset="0" style="stop-color:#C1DFE0"/>
		<stop offset="9.822965e-03" style="stop-color:#C0DEE0"/>
		<stop offset="0.3222" style="stop-color:#AECFD9"/>
		<stop offset="0.6463" style="stop-color:#A3C6D4"/>
		<stop offset="1" style="stop-color:#9FC3D3"/>
	</linearGradient>
	<path class="st3" d="M23.7,82.2c0.1-1.2-0.4-3.5,1.4-3.5c1.8-0.3,1.6,2.1,2,3.3c1.1-0.6,2.9-2.2,3.7-0.5c1,1.4-1,2.4-1.8,3.2   c1,0.7,3.1,1.2,2.4,2.8c-0.5,1.8-2.6,0.6-3.8,0.2c-0.1,1.2,0.4,3.5-1.4,3.5c-1.8,0.3-1.7-2-2-3.2c-1.1,0.5-3,2-3.8,0.3   c-1-1.4,1.2-2.4,2-3.1c-1-0.6-3.3-1.3-2.4-2.9C20.5,80.6,22.6,81.8,23.7,82.2z"/>
</g>
</svg>