<?xml version="1.0" encoding="utf-8"?>
<!-- Generator: Adobe Illustrator 24.3.0, SVG Export Plug-In . SVG Version: 6.00 Build 0)  -->
<svg version="1.1" id="Layer_1" xmlns="http://www.w3.org/2000/svg" xmlns:xlink="http://www.w3.org/1999/xlink" x="0px" y="0px"
	 viewBox="0 0 96 96" style="enable-background:new 0 0 96 96;" xml:space="preserve">
<style type="text/css">
	.st0{fill:url(#SVGID_1_);}
	.st1{fill:url(#SVGID_2_);}
	.st2{fill:url(#SVGID_3_);}
	.st3{fill:url(#SVGID_4_);}
	.st4{fill:url(#SVGID_5_);}
	.st5{fill:url(#SVGID_6_);}
	.st6{fill:url(#SVGID_7_);}
</style>
<linearGradient id="SVGID_1_" gradientUnits="userSpaceOnUse" x1="47.9013" y1="96.792" x2="47.9013" y2="40.1389" gradientTransform="matrix(1 0 0 -1 0 98)">
	<stop  offset="0.4415" style="stop-color:#F6F6F6"/>
	<stop  offset="0.6666" style="stop-color:#EEEEEE"/>
	<stop  offset="0.8423" style="stop-color:#E1E1E1"/>
	<stop  offset="0.9923" style="stop-color:#CECECE"/>
	<stop  offset="1" style="stop-color:#CDCDCD"/>
</linearGradient>
<path class="st0" d="M89.2,22.8c-3.8-5.9-10.5-9.5-17.5-9.8c-3.8,0.3-5.9-3.1-8.5-5.2c-10.1-8.7-26.6-8.2-36.3,1
	c-4.1,3.3-6.2,8.3-8.6,12.8c-1.7,1.1-3.7,1.7-5.6,2.5c-5.1,2.3-9.8,7.4-10.2,13.1c11-0.1,22.4-3.4,33.2-4.9
	c-10.8,1.4-21.4,4.8-32.4,4.9H2.5C2.4,43.3,4,50,9.2,53.9c3.2,2.8,7.3,4.4,11.5,4.3c14.4,0.1,28.8-0.1,43.2,0
	c3.6,0,7.2,0.1,10.8-0.4c8.9-1.4,16.7-8.8,18.1-17.7C94.1,34.2,92.9,27.7,89.2,22.8z"/>
<g id="_x23_199be2ff">
	
		<linearGradient id="SVGID_2_" gradientUnits="userSpaceOnUse" x1="75.5843" y1="22.5065" x2="75.5843" y2="11.414" gradientTransform="matrix(0.9339 -0.3574 -0.3574 -0.9339 9.5195 113.1363)">
		<stop  offset="0.3077" style="stop-color:#2D9DDE"/>
		<stop  offset="1" style="stop-color:#1772AF"/>
	</linearGradient>
	<path class="st1" d="M69.3,69.9c2-3,5-4.8,7.9-6.8c0.3,4.1,2.5,10.5-2.3,12.8C71.4,77.8,67.7,73.1,69.3,69.9z"/>
	
		<linearGradient id="SVGID_3_" gradientUnits="userSpaceOnUse" x1="26.2033" y1="43.3575" x2="26.2033" y2="32.9727" gradientTransform="matrix(0.9339 -0.3574 -0.3574 -0.9339 9.5195 113.1363)">
		<stop  offset="0.3077" style="stop-color:#2D9DDE"/>
		<stop  offset="1" style="stop-color:#1772AF"/>
	</linearGradient>
	<path class="st2" d="M15.5,67.3c2-3,5-4.8,7.9-6.8c0.3,4.2,2.5,10.5-2.3,12.8C17.6,75.2,13.8,70.6,15.5,67.3z"/>
	
		<linearGradient id="SVGID_4_" gradientUnits="userSpaceOnUse" x1="26.827" y1="23.0001" x2="26.827" y2="12.6153" gradientTransform="matrix(0.9339 -0.3574 -0.3574 -0.9339 9.5195 113.1363)">
		<stop  offset="0.3077" style="stop-color:#2D9DDE"/>
		<stop  offset="1" style="stop-color:#1772AF"/>
	</linearGradient>
	<path class="st3" d="M23.3,86.1c2-3,5-4.8,7.9-6.8c0.3,4.2,2.5,10.5-2.3,12.8C25.5,94,21.7,89.4,23.3,86.1z"/>
</g>
<g id="_x23_199be2ff_1_">
	
		<linearGradient id="SVGID_5_" gradientUnits="userSpaceOnUse" x1="66.6793" y1="31.8581" x2="66.6793" y2="21.3502" gradientTransform="matrix(0.9986 5.347102e-02 5.347102e-02 -0.9986 -13.4953 107.6107)">
		<stop  offset="0" style="stop-color:#C1DFE0"/>
		<stop  offset="9.822965e-03" style="stop-color:#C0DEE0"/>
		<stop  offset="0.3222" style="stop-color:#AECFD9"/>
		<stop  offset="0.6463" style="stop-color:#A3C6D4"/>
		<stop  offset="1" style="stop-color:#9FC3D3"/>
	</linearGradient>
	<path class="st4" d="M53.2,82.1c0.2-1,0.1-3,1.6-2.7c1.5-0.1,1.1,1.9,1.3,2.9c1-0.4,2.6-1.4,3.2,0.1c0.7,1.3-1.1,1.8-1.9,2.5
		c0.7,0.7,2.4,1.4,1.7,2.6c-0.7,1.4-2.3,0.2-3.2-0.3c-0.2,1-0.1,3-1.5,2.7C52.7,89.9,53,87.9,53,87c-1,0.4-2.7,1.4-3.2-0.1
		c-0.7-1.3,1.3-1.8,2-2.4c-0.7-0.6-2.6-1.4-1.7-2.6C50.7,80.4,52.3,81.7,53.2,82.1z"/>
</g>
<g id="_x23_199be2ff_2_">
	
		<linearGradient id="SVGID_6_" gradientUnits="userSpaceOnUse" x1="68.1149" y1="56.5774" x2="68.1149" y2="42.736" gradientTransform="matrix(0.9986 5.347102e-02 5.347102e-02 -0.9986 -13.4953 107.6107)">
		<stop  offset="0" style="stop-color:#C1DFE0"/>
		<stop  offset="9.822965e-03" style="stop-color:#C0DEE0"/>
		<stop  offset="0.3222" style="stop-color:#AECFD9"/>
		<stop  offset="0.6463" style="stop-color:#A3C6D4"/>
		<stop  offset="1" style="stop-color:#9FC3D3"/>
	</linearGradient>
	<path class="st5" d="M55.4,58.4c0.2-1.3,0.1-4,2.1-3.6c2-0.1,1.5,2.6,1.7,3.8c1.3-0.5,3.5-1.9,4.2,0.1c0.9,1.7-1.5,2.4-2.5,3.2
		c0.9,0.9,3.2,1.8,2.2,3.5c-0.9,1.9-3,0.3-4.2-0.4c-0.3,1.3-0.1,3.9-2,3.6c-2,0.1-1.6-2.6-1.7-3.8c-1.3,0.5-3.5,1.9-4.2-0.1
		c-0.9-1.7,1.7-2.4,2.6-3.2c-1-0.8-3.4-1.9-2.3-3.5C52.1,56.1,54.2,57.8,55.4,58.4z"/>
</g>
<g id="_x23_199be2ff_3_">
	
		<linearGradient id="SVGID_7_" gradientUnits="userSpaceOnUse" x1="49.7975" y1="46.3569" x2="49.7975" y2="34.8518" gradientTransform="matrix(0.9986 5.347102e-02 5.347102e-02 -0.9986 -13.4953 107.6107)">
		<stop  offset="0" style="stop-color:#C1DFE0"/>
		<stop  offset="9.822965e-03" style="stop-color:#C0DEE0"/>
		<stop  offset="0.3222" style="stop-color:#AECFD9"/>
		<stop  offset="0.6463" style="stop-color:#A3C6D4"/>
		<stop  offset="1" style="stop-color:#9FC3D3"/>
	</linearGradient>
	<path class="st6" d="M36.9,67c0.2-1.1,0.1-3.3,1.7-3c1.6-0.1,1.2,2.1,1.4,3.2c1.1-0.4,2.9-1.6,3.5,0.1c0.7,1.4-1.2,2-2.1,2.7
		c0.7,0.7,2.6,1.5,1.8,2.9c-0.7,1.6-2.5,0.2-3.5-0.3c-0.2,1.1-0.1,3.2-1.7,3c-1.7,0.1-1.3-2.1-1.4-3.2c-1.1,0.4-2.9,1.6-3.5-0.1
		c-0.7-1.4,1.4-2,2.2-2.6c-0.8-0.7-2.8-1.6-1.9-2.9C34.2,65.1,35.9,66.5,36.9,67z"/>
</g>
</svg>
