<?xml version="1.0" encoding="utf-8"?>
<!-- Generator: Adobe Illustrator 24.3.0, SVG Export Plug-In . SVG Version: 6.00 Build 0)  -->
<svg version="1.1" id="Layer_1" xmlns="http://www.w3.org/2000/svg" xmlns:xlink="http://www.w3.org/1999/xlink" x="0px" y="0px"
	 viewBox="0 0 96 96" style="enable-background:new 0 0 96 96;" xml:space="preserve">
<style type="text/css">
	.st0{fill:url(#SVGID_1_);}
	.st1{fill:url(#SVGID_2_);}
	.st2{fill:url(#SVGID_3_);}
	.st3{fill:url(#SVGID_4_);}
	.st4{fill:url(#SVGID_5_);}
	.st5{fill:#E66B01;}
</style>
<linearGradient id="SVGID_1_" gradientUnits="userSpaceOnUse" x1="47.9013" y1="96.792" x2="47.9013" y2="40.1389" gradientTransform="matrix(1 0 0 -1 0 98)">
	<stop  offset="0.4415" style="stop-color:#F6F6F6"/>
	<stop  offset="0.6666" style="stop-color:#EEEEEE"/>
	<stop  offset="0.8423" style="stop-color:#E1E1E1"/>
	<stop  offset="0.9923" style="stop-color:#CECECE"/>
	<stop  offset="1" style="stop-color:#CDCDCD"/>
</linearGradient>
<path class="st0" d="M89.2,22.8c-3.8-5.9-10.5-9.5-17.5-9.8c-3.8,0.3-5.9-3.1-8.5-5.2c-10.1-8.7-26.6-8.2-36.3,1
	c-4.1,3.3-6.2,8.3-8.6,12.8c-1.7,1.1-3.7,1.7-5.6,2.5c-5.1,2.3-9.8,7.4-10.2,13.1c11-0.1,22.4-3.4,33.2-4.9
	c-10.8,1.4-21.4,4.8-32.4,4.9H2.5C2.4,43.3,4,50,9.2,53.9c3.2,2.8,7.3,4.4,11.5,4.3c14.4,0.1,28.8-0.1,43.2,0
	c3.6,0,7.2,0.1,10.8-0.4c8.9-1.4,16.7-8.8,18.1-17.7C94.1,34.2,92.9,27.7,89.2,22.8z"/>
<g id="_x23_199be2ff">
	
		<linearGradient id="SVGID_2_" gradientUnits="userSpaceOnUse" x1="38.8755" y1="21.9374" x2="38.8755" y2="10.8449" gradientTransform="matrix(0.9924 -0.123 -0.123 -0.9924 3.1188 103.7597)">
		<stop  offset="0.3077" style="stop-color:#2D9DDE"/>
		<stop  offset="1" style="stop-color:#1772AF"/>
	</linearGradient>
	<path class="st1" d="M35.2,81.2c2.6-2.4,6-3.5,9.3-4.7c-0.7,4-0.1,10.8-5.3,11.8C35.3,89.4,32.8,83.9,35.2,81.2z"/>
	
		<linearGradient id="SVGID_3_" gradientUnits="userSpaceOnUse" x1="73.0173" y1="30.4732" x2="73.0173" y2="20.0884" gradientTransform="matrix(0.9924 -0.123 -0.123 -0.9924 3.1188 103.7597)">
		<stop  offset="0.3077" style="stop-color:#2D9DDE"/>
		<stop  offset="1" style="stop-color:#1772AF"/>
	</linearGradient>
	<path class="st2" d="M67.9,67.8c2.6-2.4,6-3.5,9.3-4.7c-0.7,4.1-0.1,10.8-5.3,11.8C68.1,75.9,65.6,70.6,67.9,67.8z"/>
	
		<linearGradient id="SVGID_4_" gradientUnits="userSpaceOnUse" x1="23.6004" y1="35.4663" x2="23.6004" y2="24.3735" gradientTransform="matrix(0.9924 -0.123 -0.123 -0.9924 3.1188 103.7597)">
		<stop  offset="0.3077" style="stop-color:#2D9DDE"/>
		<stop  offset="1" style="stop-color:#1772AF"/>
	</linearGradient>
	<path class="st3" d="M18.3,69.6c2.6-2.4,6.1-3.5,9.3-4.7c-0.6,4-0.1,10.8-5.3,11.8C18.6,77.8,16.1,72.4,18.3,69.6z"/>
</g>
<g>
	
		<linearGradient id="SVGID_5_" gradientUnits="userSpaceOnUse" x1="51.7465" y1="63.932" x2="51.7465" y2="15.6103" gradientTransform="matrix(1 0 0 -1 0 98)">
		<stop  offset="0" style="stop-color:#EE9420"/>
		<stop  offset="0.3992" style="stop-color:#EA841E"/>
		<stop  offset="1" style="stop-color:#E26419"/>
	</linearGradient>
	<path class="st4" d="M51.4,54.1C51.3,54.1,51.3,54.1,51.4,54.1c-0.1-4-0.1-7.4-0.1-10.1c-0.1-3.1-0.1-5.7-0.3-8.8
		c-0.1-1.1-0.8-1.1-0.8-1.1l0,0c-0.3,0-0.6,0.2-1,0.9c-2.8,5.9-5.2,12-7.9,18c-0.9,2.1-1.8,4.2-2.7,6.4l0,0
		c-0.8,1.5-1.4,3.8,0.6,4.7c0.3,0.2,0.7,0.2,1.1,0.2c3.1,0.1,10.2,0.1,11,0.1c0.1,0,0.1,0.1,0.1,0.1c0,0.6,0,6,0,6l0,0l0,0l0,0
		c-0.1,7.4-0.1,9.2-0.1,11.1c0,0.1,0.1,0.5,0.4,0.8c0.2,0.2,0.4,0.2,0.5,0.2c1.6,0,4.9-8.1,6.7-12.1c-0.1,0-0.2,0-0.3,0
		c0.1,0,0.2,0,0.3,0c1-2.2,2-4.3,3-6.4c1-2.2,1.9-4.4,2.9-6.5c0.2-0.5,0.5-1.1,0.7-1.7c0,0-0.2,0.4,0,0c0.4-1.2-0.6-1.4-1-1.4
		C60.3,54.3,55.9,54.1,51.4,54.1z"/>
	<path class="st5" d="M58.9,70.3L58.9,70.3L58.9,70.3z"/>
</g>
</svg>
