<svg xmlns="http://www.w3.org/2000/svg" xmlns:xlink="http://www.w3.org/1999/xlink" version="1.1" id="Layer_1" x="0px" y="0px" style="enable-background:new 0 0 96 96;" xml:space="preserve" viewBox="8.36 11.39 79.92 70.67">
<style type="text/css">
	.st0{fill:url(#SVGID_1_);}
	.st1{fill:url(#SVGID_2_);}
	.st2{fill:url(#SVGID_3_);}
	.st3{fill:url(#SVGID_4_);}
</style>
<linearGradient id="SVGID_1_" gradientUnits="userSpaceOnUse" x1="48.3138" y1="11.4197" x2="48.3138" y2="61.4877">
	<stop offset="0" style="stop-color:#F8F8F8"/>
	<stop offset="0.2926" style="stop-color:#F1F1F1"/>
	<stop offset="0.7063" style="stop-color:#DFDFDF"/>
	<stop offset="0.9923" style="stop-color:#CECECE"/>
	<stop offset="1" style="stop-color:#CDCDCD"/>
</linearGradient>
<path class="st0" d="M87.9,37.4c-2-9.8-11.7-17-21.7-16c-0.5-0.7-1.1-1.4-1.6-2.1l-0.2,0.1c-5.5-6.2-14.2-9-22.3-7.7  c-8.1,1.3-15.4,6.9-18.6,14.5l-0.1,0c-0.4,1.1-0.8,2.2-1.2,3.2c-4.2,0.8-8.2,2.9-10.7,6.4C8.3,40,7.7,45.6,9,50.5  c1.2,3,3.1,5.6,5.6,7.6c4.4,3.5,10.1,3.4,15.4,3.3c5,0,13.4-0.3,15.6-0.3c8.5,0,13.7-0.3,16.4-0.3c4.6,0,12.4,0.2,15-1.4  C85,55.6,89.7,46.1,87.9,37.4z"/>
<g id="_x23_0078d4ff">
	<linearGradient id="SVGID_2_" gradientUnits="userSpaceOnUse" x1="29.1298" y1="48.1569" x2="51.8716" y2="48.1569">
		<stop offset="0" style="stop-color:#006FD3"/>
		<stop offset="0.9923" style="stop-color:#1482C6"/>
	</linearGradient>
	<path class="st1" d="M41.8,43.7c2.5-1.8,4.1-2.2,7.2-1c1.1,0.4,1.7,1,2.2,2c1.6,3.7,0.4,9.4-3.4,9.4c-6.3,0-10.4,0.1-17.1,0.1   c-1-0.1-1.4-0.9-1.5-1.4c-0.2-0.8,0-1.4,0.1-1.7c0.4-0.7,1.4-1.1,1.8-1.1c1.9,0,9.9-0.2,16-0.2c0.5,0,1.6-1.7,1-3   c-0.2-0.4-0.9-1.5-2-1.5c-1.3,0-2,0.6-2.9,1.4C41.1,47.4,40.2,44.8,41.8,43.7z"/>
</g>
<g id="_x23_199be2ff">
	<linearGradient id="SVGID_3_" gradientUnits="userSpaceOnUse" x1="24.9937" y1="69.9287" x2="78.0789" y2="69.9287">
		<stop offset="0" style="stop-color:#2A91BA"/>
		<stop offset="0.3339" style="stop-color:#2993C2"/>
		<stop offset="0.8632" style="stop-color:#259AD9"/>
		<stop offset="0.9923" style="stop-color:#249CE0"/>
	</linearGradient>
	<path class="st2" d="M27.5,62c-3.4,0.1-3.2-4.1-0.1-4.1c3.6,0,21.2,0.2,31.8,0c4.6,0.1,9.7-0.6,13.8,2.1c6.3,4.1,7.1,14.1,1.2,18.9   c-5.6,5.3-15.9,3.2-18.8-4c-0.8-2.4,1.4-3.5,2.8-2.3c1.5,1.6,2.6,3.8,4.7,4.7c3.6,1.8,8.4,0.2,10.3-3.4c2.1-3.5,0.9-8.3-2.5-10.5   C68.7,62,66.3,62,64.1,62C51.4,62,40.2,62,27.5,62z"/>
</g>
<g id="_x23_35c1f1ff">
	<linearGradient id="SVGID_4_" gradientUnits="userSpaceOnUse" x1="21.6298" y1="74.0211" x2="48.205" y2="74.0211">
		<stop offset="0" style="stop-color:#41B0CE"/>
		<stop offset="0.3697" style="stop-color:#40B5D6"/>
		<stop offset="0.9559" style="stop-color:#3DC1ED"/>
		<stop offset="0.9923" style="stop-color:#3DC2EF"/>
	</linearGradient>
	<path class="st3" d="M23.3,66.2c6.9,0,16.2-0.1,16.9-0.1c5.3,0,9,5.1,7.7,9.9c-1,4.7-6.8,7.5-11.1,5.3c-2-1-4.7-3.7-3.4-6   c2.8-2.2,3.9,3.3,6.8,2.8c4.1,0.2,6.3-6.1,1.8-8.1c-0.7-0.6-12.2-0.1-18.7-0.1C21.3,69.6,20.8,66.4,23.3,66.2z"/>
</g>
</svg>